# xmcd CD database file
#
# Track frame offsets:
#	150
#	28033
#	69675
#	126556
#	188236
#	258464
#	284104
#
# Disc length: 4270 seconds
#
# Revision: 0
# Processed by: cddbd v1.5.2PL0 Copyright (c) Steve Scherf et al.
# Submitted via: CDex 1.70beta2
#
DISCID=7410ac07
DTITLE=Central European Percussion Ensemble - Dama Dama
DYEAR=1999
DGENRE=Jazz
TTITLE0=Convergence
TTITLE1=Dunes for Two Marimbas
TTITLE2=Concertino for Synthesizers and Percussion
TTITLE3=Tamtamania
TTITLE4=Fifth Element
TTITLE5=Blue Sky Research
TTITLE6=Sublimation
EXTD=YEAR: 1999
EXTT0=
EXTT1=
EXTT2=
EXTT3=
EXTT4=
EXTT5=
EXTT6=
PLAYORDER=
